<svg width="504" height="136" viewBox="0 0 504 136" fill="none" xmlns="http://www.w3.org/2000/svg">
<path d="M97.3763 40.2268C98.9832 37.6223 98.4391 16.0161 98.3379 14.7074C98.2852 14.026 97.6184 7.01702 96.961 0.333344H72.7399C70.7283 0.333344 69.0975 1.9641 69.0975 3.97575V84.8339C69.0975 86.8455 70.7283 88.4763 72.74 88.4763H131.05C133.062 88.4763 134.692 86.8455 134.692 84.8339V3.97576C134.692 1.96411 133.062 0.333344 131.05 0.333344H103.567C102.913 7.01702 102.25 14.026 102.197 14.7074C102.083 16.0161 101.552 37.6223 103.159 40.2268C103.586 40.9193 103.969 41.4766 104.312 41.974C105.256 43.3476 105.887 44.2644 106.259 46.3084C107.511 53.1341 105.512 74.0718 105.512 74.0718C105.449 74.0718 105.31 74.0769 105.057 74.0923C104.517 74.1248 104.444 64.2185 104.391 57.0964C104.365 53.538 104.344 50.6747 104.272 50.0933C104.057 48.3612 103.095 49.1182 102.982 49.5544C102.88 49.9907 102.121 74.0846 102.121 74.0846C102.033 74.0718 101.273 74.0846 101.273 74.0846C101.273 74.0846 101.096 50.3114 100.843 49.4133C100.851 49.4673 100.832 49.4355 100.789 49.366C100.629 49.1048 100.142 48.3102 99.5526 49.5159C99.3249 49.9778 99.5526 74.1051 99.5526 74.1051C99.5526 74.1051 98.8567 74.0743 98.7681 74.0872C98.7681 74.0872 97.7306 49.9907 97.6293 49.5544C97.5155 49.1182 96.5538 48.3612 96.3387 50.0933C96.2638 50.7007 96.2917 53.7984 96.3256 57.5769C96.3893 64.6528 96.4744 74.1164 95.9465 74.0846C95.6935 74.0654 95.5544 74.0654 95.491 74.0654C95.491 74.0654 93.0742 53.1469 94.2636 46.3084C94.6236 44.2774 95.2596 43.3593 96.2012 42.0001C96.5504 41.4961 96.9416 40.9314 97.3763 40.2268Z" fill="#EF5411"/>
<path d="M52.9592 97.5215C52.9592 95.5098 54.5899 93.8791 56.6016 93.8791H131.127C133.138 93.8791 134.769 95.5098 134.769 97.5215V131.46C134.769 133.472 133.138 135.103 131.127 135.103H56.6016C54.5899 135.103 52.9592 133.472 52.9592 131.46V97.5215Z" fill="#EF5411"/>
<path d="M3.64241 69.3148C1.63076 69.3148 0 70.9455 0 72.9572V131.46C0 133.472 1.63076 135.103 3.64241 135.103H21.8891C21.9698 128.31 21.8797 117.85 20.8086 116.11C20.4003 115.473 20.0538 114.949 19.732 114.488C16.5393 110.993 12.3071 105.066 12.1091 98.0153C11.7998 86.647 19.4722 80.4923 23.2341 80.4923H23.9519C27.7139 80.4923 35.3863 86.647 35.0645 98.0153C34.8789 104.816 30.9437 110.557 27.8128 114.088C27.4168 114.65 26.9714 115.286 26.464 116.11C25.3844 117.85 25.2917 128.31 25.3715 135.103H43.1656C45.1772 135.103 46.808 133.472 46.808 131.46V72.9572C46.808 70.9455 45.1772 69.3148 43.1656 69.3148H3.64241Z" fill="#EF5411"/>
<path fill-rule="evenodd" clip-rule="evenodd" d="M53.1856 33.2329C53.1856 44.5229 44.06 53.6753 32.8031 53.6753C21.5461 53.6753 12.4206 44.5229 12.4206 33.2329C12.4206 21.9428 21.5461 12.7905 32.8031 12.7905C44.06 12.7905 53.1856 21.9428 53.1856 33.2329ZM52.2301 33.2329C52.2301 43.9937 43.5323 52.7171 32.8031 52.7171C22.0738 52.7171 13.376 43.9937 13.376 33.2329C13.376 22.4721 22.0738 13.7487 32.8031 13.7487C43.5323 13.7487 52.2301 22.4721 52.2301 33.2329Z" fill="#EF5411"/>
<path fill-rule="evenodd" clip-rule="evenodd" d="M0 3.97576C0 1.96411 1.63077 0.333344 3.64241 0.333344H61.9637C63.9754 0.333344 65.6061 1.96411 65.6061 3.97576V62.49C65.6061 64.5017 63.9754 66.1324 61.9637 66.1324H3.64241C1.63076 66.1324 0 64.5017 0 62.49V3.97576ZM55.4149 33.3926C55.4149 45.8293 45.3625 55.9112 32.9623 55.9112C20.5621 55.9112 10.5097 45.8293 10.5097 33.3926C10.5097 20.9559 20.5621 10.874 32.9623 10.874C45.3625 10.874 55.4149 20.9559 55.4149 33.3926Z" fill="#EF5411"/>
<path d="M161.054 51.366L160.835 47.7051L165.145 46.5337C165.291 46.3384 165.389 45.7527 165.437 44.7764C165.486 43.8002 165.535 42.5311 165.583 40.9691C165.632 39.3583 165.657 37.5767 165.657 35.6242L165.73 23.8362C165.73 21.9325 165.705 20.1997 165.657 18.6377C165.608 17.0758 165.559 15.8067 165.51 14.8304C165.462 13.8054 165.364 13.1952 165.218 13L160.615 12.0482L160.835 8.38728H179.319C185.31 8.38728 189.791 9.48555 192.762 11.6821C195.733 13.8298 197.219 16.9293 197.219 20.9807C197.219 23.6654 196.512 26.0815 195.1 28.2293C193.687 30.377 191.642 32.0854 188.963 33.3545C186.333 34.5748 183.142 35.1849 179.392 35.1849C178.564 35.1849 177.736 35.1361 176.908 35.0385C176.08 34.9409 175.276 34.8188 174.497 34.6724V29.6204C175.081 29.8645 175.763 30.0841 176.543 30.2794C177.371 30.4258 178.32 30.499 179.392 30.499C181.73 30.499 183.532 29.7668 184.798 28.3025C186.065 26.8381 186.698 24.7148 186.698 21.9325C186.698 18.6622 185.894 16.2704 184.287 14.7572C182.68 13.2441 180.463 12.4875 177.638 12.4875H175.666C175.666 12.8292 175.641 13.4881 175.593 14.4643C175.593 15.3918 175.568 16.6365 175.52 18.1984C175.52 19.7116 175.52 21.5909 175.52 23.8362L175.593 35.6242C175.593 37.5767 175.617 39.3583 175.666 40.9691C175.715 42.5311 175.763 43.8002 175.812 44.7764C175.909 45.7039 175.982 46.2896 176.031 46.5337L181.949 47.5587L181.73 51.366H161.054Z" fill="#EF5411"/>
<path d="M212.123 51.9518C209.883 51.9518 207.934 51.4636 206.278 50.4874C204.671 49.5112 203.429 48.3397 202.552 46.973C201.724 45.6062 201.31 44.3127 201.31 43.0924C201.31 41.3352 201.846 39.8709 202.917 38.6994C204.038 37.4791 205.742 36.5273 208.032 35.8439L219.502 32.4759V29.84C219.502 28.815 219.161 27.8632 218.479 26.9846C217.846 26.0571 216.994 25.3006 215.922 24.7148C214.851 24.1291 213.706 23.8362 212.488 23.8362C211.709 23.8362 211.149 24.0314 210.808 24.4219C210.516 24.7636 210.321 25.4714 210.223 26.5453L209.858 31.0115C207.423 31.4996 205.426 31.4264 203.867 30.7919C202.357 30.1085 201.602 29.0102 201.602 27.4971C201.602 26.5697 202.089 25.6178 203.064 24.6416C204.038 23.6654 205.231 22.7623 206.644 21.9325C208.105 21.0539 209.59 20.3218 211.1 19.736C212.61 19.1015 213.925 18.7354 215.045 18.6377C219.38 18.6377 222.814 19.6384 225.347 21.6397C227.88 23.5921 229.171 26.228 229.219 29.5472L229 39.7244C229 41.0912 229.024 42.165 229.073 42.946C229.171 43.727 229.317 44.3615 229.511 44.8497L234.333 45.7283V48.8034L229.585 50.8535C228.708 51.1952 227.904 51.4636 227.174 51.6589C226.443 51.8541 225.737 51.9518 225.055 51.9518C223.155 51.9518 221.816 50.9755 221.036 49.0231L219.794 45.6551L221.329 46.0211C219.819 47.876 218.26 49.3403 216.653 50.4142C215.094 51.4392 213.584 51.9518 212.123 51.9518ZM215.849 45.3622C216.531 45.3622 217.189 45.2402 217.822 44.9961C218.455 44.7032 219.039 44.2883 219.575 43.7514V36.5761L214.607 37.5279C213.389 37.6743 212.513 38.0404 211.977 38.6262C211.49 39.2119 211.246 39.9929 211.246 40.9691C211.246 42.0918 211.685 43.1168 212.561 44.0443C213.487 44.9229 214.583 45.3622 215.849 45.3622Z" fill="#EF5411"/>
<path d="M262.096 45.2157C261.366 47.3147 260.026 48.9987 258.078 50.2678C256.179 51.4881 254.035 52.0982 251.649 52.0982C248.288 52.0982 245.512 51.122 243.32 49.1695C241.177 47.1682 240.105 44.1907 240.105 40.2369L240.324 23.9094H235.21V21.6397L247.704 11.6821H249.968L249.822 22.0058L249.676 39.3583C249.676 41.4084 250.163 42.8972 251.137 43.8246C252.112 44.7032 253.475 45.1425 255.229 45.1425C256.154 45.1425 257.055 44.9717 257.932 44.63C258.809 44.2395 259.564 43.7514 260.197 43.1657L262.096 45.2157ZM246.096 23.9094V19.2967H260.051V23.9094H246.096Z" fill="#EF5411"/>
<path d="M279.85 51.9518C276.782 51.9518 274.005 51.2928 271.521 49.9749C269.086 48.6082 267.113 46.7289 265.603 44.3371C264.142 41.8965 263.412 39.1387 263.412 36.0635C263.412 32.9884 264.191 30.1329 265.75 27.4971C267.308 24.8124 269.451 22.6647 272.179 21.0539C274.906 19.4431 278.048 18.6377 281.604 18.6377C283.747 18.6377 285.671 18.9306 287.375 19.5164C289.08 20.0533 290.444 20.8343 291.467 21.8593C292.49 22.8844 293.001 24.0314 293.001 25.3006C293.001 26.5208 292.611 27.4483 291.832 28.0828C291.102 28.6686 290.2 28.9614 289.129 28.9614C288.203 28.9614 287.375 28.7906 286.645 28.4489C285.963 28.1072 285.159 27.5459 284.234 26.7649L278.9 22.079L282.626 22.9576C281.214 22.6159 279.801 22.8112 278.389 23.5433C277.025 24.2755 275.905 25.4958 275.028 27.2042C274.151 28.8638 273.713 30.9627 273.713 33.5009C273.713 37.2594 274.614 40.0905 276.416 41.9942C278.267 43.8978 280.532 44.8497 283.211 44.8497C284.575 44.8497 285.914 44.5568 287.229 43.971C288.593 43.3365 289.908 42.2626 291.175 40.7495L293.513 42.8728C292.149 45.8503 290.225 48.12 287.741 49.682C285.305 51.1952 282.675 51.9518 279.85 51.9518Z" fill="#EF5411"/>
<path d="M295.485 51.366L295.266 47.998L299.796 46.7533C299.844 46.2164 299.893 45.289 299.942 43.971C300.039 42.6043 300.112 41.0423 300.161 39.2851C300.21 37.5279 300.234 35.8195 300.234 34.1599V24.9345C300.234 23.2749 300.21 21.6153 300.161 19.9557C300.161 18.2473 300.137 16.6365 300.088 15.1233C300.088 13.5613 300.064 12.1458 300.015 10.8767C299.966 9.60758 299.893 8.58253 299.796 7.80154L294.389 7.06937L294.243 3.92101L308.052 0.333344L310.097 1.57804C310 3.09121 309.902 4.55556 309.805 5.9711C309.756 7.38664 309.708 8.94862 309.659 10.657C309.61 12.3166 309.561 14.2447 309.513 16.4412C309.464 18.5889 309.415 21.2004 309.367 24.2755L309.586 24.3487C311.096 22.4451 312.752 21.0295 314.554 20.1021C316.356 19.1259 318.28 18.6377 320.326 18.6377C322.42 18.6377 324.271 19.1503 325.878 20.1753C327.534 21.2004 328.849 22.7135 329.824 24.7148C330.798 26.6673 331.285 29.0347 331.285 31.8169V39.3583C331.285 41.0179 331.309 42.5799 331.358 44.0443C331.455 45.4598 331.553 46.3628 331.65 46.7533L336.18 47.998L335.961 51.366H317.696L317.476 47.998L321.568 46.7533C321.665 46.314 321.738 45.7039 321.787 44.9229C321.836 44.0931 321.86 43.1901 321.86 42.2138C321.909 41.2376 321.933 40.3102 321.933 39.4316V33.2813C321.933 31.4264 321.641 29.9377 321.056 28.815C320.521 27.6435 319.79 26.7893 318.865 26.2524C317.988 25.7155 316.965 25.447 315.796 25.447C314.627 25.447 313.507 25.7155 312.435 26.2524C311.364 26.7893 310.414 27.5703 309.586 28.5953V39.3583C309.586 41.1644 309.61 42.7508 309.659 44.1175C309.756 45.4842 309.854 46.3628 309.951 46.7533L314.335 47.998L314.116 51.366H295.485Z" fill="#EF5411"/>
<path d="M375.998 51.6589L363.358 23.763L359.852 22.5915L360.071 19.2235H377.824L377.971 22.5915L374.171 23.763L381.624 41.7013H379.724L387.541 23.763L383.742 22.5915L383.888 19.2235H396.382L396.528 22.5915L393.094 23.763L379.213 51.6589H375.998ZM352.838 51.6589L339.833 23.763L336.399 22.5915L336.618 19.2235H354.226L354.372 22.5915L350.938 23.763L358.756 41.7013H356.637L365.039 23.6898L367.669 28.5221L355.979 51.6589H352.838Z" fill="#EF5411"/>
<path d="M414.501 51.9518C411.091 51.9518 408.096 51.2684 405.514 49.9017C402.933 48.4861 400.912 46.5581 399.45 44.1175C397.989 41.6281 397.259 38.797 397.259 35.6242C397.259 32.0122 398.087 28.937 399.743 26.3988C401.399 23.8606 403.566 21.9325 406.245 20.6146C408.924 19.2967 411.773 18.6377 414.793 18.6377C418.008 18.6377 420.833 19.3211 423.268 20.6878C425.752 22.0546 427.676 23.9826 429.04 26.472C430.452 28.9126 431.159 31.7193 431.159 34.8921C431.159 38.1136 430.404 41.0179 428.894 43.605C427.433 46.1432 425.436 48.1689 422.903 49.682C420.37 51.1952 417.569 51.9518 414.501 51.9518ZM415.231 47.2658C416.449 47.2658 417.472 46.8753 418.3 46.0944C419.177 45.3134 419.834 44.1663 420.273 42.6531C420.76 41.14 421.003 39.3339 421.003 37.235C421.003 33.0372 420.321 29.6204 418.958 26.9846C417.642 24.3487 415.865 23.0308 413.624 23.0308C411.773 23.0308 410.312 23.9826 409.24 25.8863C408.169 27.7411 407.633 30.2794 407.633 33.5009C407.633 36.0879 407.95 38.4309 408.583 40.5298C409.265 42.6287 410.166 44.2883 411.286 45.5086C412.455 46.6801 413.77 47.2658 415.231 47.2658Z" fill="#EF5411"/>
<path d="M435.177 51.366L434.958 47.998L439.488 46.7533C439.536 46.5581 439.585 46.1188 439.634 45.4354C439.682 44.7032 439.731 43.8246 439.78 42.7996C439.828 41.7257 439.853 40.603 439.853 39.4316L439.926 33.9402C439.926 32.4759 439.877 31.1824 439.78 30.0597C439.682 28.8882 439.512 27.6679 439.268 26.3988L434.592 25.3738V22.079L447.232 18.7842L449.132 20.0289L448.839 25.8131L449.058 25.8863C450.471 23.1528 451.883 21.298 453.296 20.3218C454.757 19.3455 456.243 18.8574 457.753 18.8574C459.068 18.8574 460.212 19.2235 461.187 19.9557C462.209 20.6878 462.721 21.8349 462.721 23.3969C462.721 24.9589 462.185 26.1792 461.113 27.0578C460.042 27.9364 458.8 28.3757 457.387 28.3757C456.218 28.3757 455.171 28.1804 454.246 27.79C453.32 27.3506 452.297 26.5941 451.177 25.5202L453.223 25.7399C452.492 26.2768 451.786 26.9602 451.104 27.79C450.422 28.6198 449.838 29.5716 449.351 30.6454L449.424 36.4296C449.472 38.2357 449.497 39.8709 449.497 41.3352C449.546 42.7508 449.594 43.9466 449.643 44.9229C449.692 45.8503 449.74 46.4604 449.789 46.7533L456.145 47.8516L455.926 51.366H435.177Z" fill="#EF5411"/>
<path d="M464.547 51.366L464.328 47.998L468.493 46.7533C468.59 46.1188 468.663 45.1181 468.712 43.7514C468.76 42.3847 468.809 40.8715 468.858 39.2119C468.907 37.5035 468.931 35.8683 468.931 34.3063V24.9345C468.931 23.1772 468.907 21.4688 468.858 19.8092C468.858 18.1008 468.834 16.49 468.785 14.9769C468.785 13.4149 468.76 12.0238 468.712 10.8035C468.663 9.58317 468.614 8.58253 468.566 7.80154L463.159 7.06937L463.013 3.92101L476.821 0.333344L478.867 1.57804C478.77 2.94477 478.672 4.3115 478.575 5.67823C478.526 7.04496 478.478 8.53372 478.429 10.1445C478.429 11.7065 478.404 13.5369 478.356 15.6358C478.356 17.6859 478.356 20.1509 478.356 23.0308L478.283 39.578C478.283 40.6518 478.307 41.7013 478.356 42.7263C478.404 43.7026 478.429 44.5568 478.429 45.289C478.478 45.9723 478.526 46.4604 478.575 46.7533L483.105 47.998L482.885 51.366H464.547ZM503.781 51.366H491.507C490.776 50.341 490.094 49.4624 489.461 48.7302C488.876 47.9492 488.268 47.1926 487.634 46.4604L479.159 36.8689H477.333L477.406 34.1599L479.598 33.6474L490.338 23.4701L485.516 22.6647L485.735 19.2235H501.954L502.173 22.6647L497.352 23.5433L485.223 33.6474L486.027 30.3526L497.205 43.0924C498.131 44.1663 498.934 45.0693 499.616 45.8015C500.347 46.5337 500.883 47.0706 501.224 47.4123L504 47.998L503.781 51.366Z" fill="#EF5411"/>
<path d="M161.054 134.151L160.835 130.49L165.218 129.318C165.316 129.123 165.389 128.513 165.437 127.488C165.486 126.463 165.535 125.145 165.583 123.534C165.632 121.875 165.657 120.069 165.657 118.116L165.73 107.207C165.73 105.205 165.705 103.399 165.657 101.789C165.608 100.129 165.559 98.7866 165.51 97.7616C165.462 96.7365 165.389 96.1508 165.291 96.0044L160.688 94.8329L160.908 91.172H182.68C183.702 91.172 184.92 91.172 186.333 91.172C187.745 91.1232 189.133 91.0744 190.497 91.0256C191.861 90.9279 192.957 90.8547 193.785 90.8059L195.757 101.642L191.52 102.228L188.744 95.7847C188.159 95.6383 187.599 95.5407 187.063 95.4918C186.576 95.443 186.04 95.4186 185.456 95.4186H179.903C179.075 95.4186 178.247 95.4674 177.419 95.5651C176.64 95.6139 175.982 95.6871 175.447 95.7847C175.447 96.0288 175.447 96.3216 175.447 96.6633C175.447 96.9562 175.447 97.3955 175.447 97.9812C175.447 98.567 175.447 99.3968 175.447 100.471C175.447 101.545 175.447 102.96 175.447 104.717L175.52 121.631C175.52 122.558 175.544 123.583 175.593 124.706C175.641 125.828 175.69 126.829 175.739 127.708C175.788 128.586 175.836 129.123 175.885 129.318L181.803 130.343L181.584 134.151H161.054ZM186.113 120.313L185.383 115.114C184.798 115.017 184.141 114.943 183.41 114.895C182.68 114.846 181.949 114.821 181.218 114.821H177.054C176.129 114.821 175.301 114.87 174.57 114.968C173.888 115.017 173.279 115.065 172.743 115.114V109.916C173.279 109.965 173.912 110.013 174.643 110.062C175.374 110.111 176.177 110.135 177.054 110.135H181.218C182.193 110.135 183.045 110.111 183.776 110.062C184.506 110.013 185.042 109.989 185.383 109.989L186.113 105.157H190.278V120.313H186.113Z" fill="#EF5411"/>
<path d="M214.607 134.736C211.198 134.736 208.202 134.053 205.621 132.686C203.039 131.271 201.018 129.343 199.557 126.902C198.095 124.413 197.365 121.582 197.365 118.409C197.365 114.797 198.193 111.722 199.849 109.184C201.505 106.645 203.672 104.717 206.351 103.399C209.03 102.081 211.88 101.422 214.899 101.422C218.114 101.422 220.939 102.106 223.374 103.473C225.858 104.839 227.782 106.767 229.146 109.257C230.559 111.697 231.265 114.504 231.265 117.677C231.265 120.898 230.51 123.803 229 126.39C227.539 128.928 225.542 130.954 223.009 132.467C220.476 133.98 217.676 134.736 214.607 134.736ZM215.338 130.051C216.555 130.051 217.578 129.66 218.406 128.879C219.283 128.098 219.941 126.951 220.379 125.438C220.866 123.925 221.11 122.119 221.11 120.02C221.11 115.822 220.428 112.405 219.064 109.769C217.749 107.133 215.971 105.816 213.73 105.816C211.88 105.816 210.418 106.767 209.347 108.671C208.275 110.526 207.739 113.064 207.739 116.286C207.739 118.873 208.056 121.216 208.689 123.315C209.371 125.413 210.272 127.073 211.392 128.293C212.561 129.465 213.877 130.051 215.338 130.051Z" fill="#EF5411"/>
<path d="M253.548 134.736C250.139 134.736 247.143 134.053 244.562 132.686C241.98 131.271 239.959 129.343 238.498 126.902C237.037 124.413 236.306 121.582 236.306 118.409C236.306 114.797 237.134 111.722 238.79 109.184C240.446 106.645 242.614 104.717 245.293 103.399C247.971 102.081 250.821 101.422 253.841 101.422C257.055 101.422 259.88 102.106 262.316 103.473C264.8 104.839 266.724 106.767 268.087 109.257C269.5 111.697 270.206 114.504 270.206 117.677C270.206 120.898 269.451 123.803 267.941 126.39C266.48 128.928 264.483 130.954 261.95 132.467C259.418 133.98 256.617 134.736 253.548 134.736ZM254.279 130.051C255.497 130.051 256.52 129.66 257.348 128.879C258.224 128.098 258.882 126.951 259.32 125.438C259.807 123.925 260.051 122.119 260.051 120.02C260.051 115.822 259.369 112.405 258.005 109.769C256.69 107.133 254.912 105.816 252.672 105.816C250.821 105.816 249.36 106.767 248.288 108.671C247.216 110.526 246.681 113.064 246.681 116.286C246.681 118.873 246.997 121.216 247.63 123.315C248.312 125.413 249.213 127.073 250.334 128.293C251.503 129.465 252.818 130.051 254.279 130.051Z" fill="#EF5411"/>
<path d="M300.526 135.103L298.554 134.004L298.627 129.245L298.408 129.172C297.19 131.271 295.826 132.76 294.316 133.638C292.806 134.468 291.248 134.883 289.64 134.883C287.059 134.883 284.672 134.224 282.48 132.906C280.289 131.588 278.535 129.758 277.22 127.415C275.905 125.023 275.247 122.265 275.247 119.141C275.247 116.408 275.759 113.967 276.782 111.819C277.804 109.623 279.168 107.768 280.873 106.255C282.578 104.693 284.477 103.521 286.572 102.74C288.666 101.911 290.809 101.496 293.001 101.496C293.927 101.496 294.876 101.593 295.85 101.789C296.825 101.935 297.628 102.179 298.261 102.521C298.261 101.593 298.237 100.568 298.188 99.4456C298.188 98.2741 298.164 97.127 298.115 96.0044C298.115 94.8329 298.091 93.7834 298.042 92.856C298.042 91.8798 298.018 91.1476 297.969 90.6595L292.563 89.8541L292.417 86.7057L306.225 83.1181L308.271 84.3628C308.125 87.3891 307.979 90.1958 307.832 92.7828C307.686 95.321 307.613 98.0057 307.613 100.837L307.54 117.823C307.54 120.215 307.613 122.167 307.759 123.681C307.905 125.194 308.027 126.487 308.125 127.561L312.947 128.586V131.735L300.526 135.103ZM293.147 127.854C293.927 127.854 294.803 127.61 295.777 127.122C296.8 126.634 297.677 125.828 298.408 124.706V108.378C297.726 107.451 296.922 106.816 295.997 106.474C295.071 106.084 294.146 105.889 293.22 105.889C290.931 105.889 289.031 106.841 287.522 108.744C286.06 110.648 285.33 113.259 285.33 116.579C285.33 120.191 286.085 122.973 287.595 124.925C289.153 126.878 291.004 127.854 293.147 127.854Z" fill="#EF5411"/>
<path d="M327.924 134.736C325.878 134.736 323.857 134.517 321.86 134.078C319.863 133.589 318.183 132.979 316.819 132.247L316.454 123.681H321.129L322.664 128.952C324.515 130.026 326.438 130.563 328.435 130.563C329.945 130.563 331.09 130.27 331.869 129.684C332.649 129.05 333.038 128.22 333.038 127.195C333.038 126.121 332.6 125.194 331.723 124.413C330.895 123.632 329.166 122.753 326.536 121.777C322.932 120.459 320.423 119.019 319.011 117.457C317.598 115.895 316.892 113.943 316.892 111.6C316.892 109.598 317.501 107.841 318.718 106.328C319.936 104.766 321.641 103.57 323.833 102.74C326.024 101.862 328.557 101.422 331.431 101.422C332.99 101.422 334.573 101.569 336.18 101.862C337.787 102.155 339.102 102.545 340.125 103.033L341.002 111.527H336.326L334.719 106.328C334.232 106.035 333.623 105.816 332.892 105.669C332.21 105.474 331.553 105.376 330.92 105.376C329.458 105.376 328.265 105.694 327.34 106.328C326.463 106.963 326.024 107.817 326.024 108.891C326.024 110.062 326.56 111.038 327.632 111.819C328.703 112.6 330.652 113.577 333.477 114.748C336.691 116.066 338.981 117.482 340.344 118.995C341.708 120.459 342.39 122.289 342.39 124.486C342.39 127.561 341.051 130.051 338.372 131.954C335.693 133.809 332.21 134.736 327.924 134.736Z" fill="#EF5411"/>
</svg>
